<svg width="149" height="149" viewBox="0 0 149 149" fill="none" xmlns="http://www.w3.org/2000/svg">
<path d="M124.117 81.0118C124.117 111.813 102.557 127.213 76.9303 136.145C75.5884 136.6 74.1308 136.578 72.803 136.084C47.1152 127.213 25.5547 111.813 25.5547 81.0118V37.8908C25.5547 36.257 26.2037 34.6902 27.359 33.5349C28.5142 32.3797 30.0811 31.7307 31.7148 31.7307C44.0351 31.7307 59.4355 24.3385 70.1542 14.975C71.4592 13.8601 73.1194 13.2474 74.8359 13.2474C76.5524 13.2474 78.2125 13.8601 79.5176 14.975C90.2979 24.4001 105.637 31.7307 117.957 31.7307C119.591 31.7307 121.158 32.3797 122.313 33.5349C123.468 34.6902 124.117 36.257 124.117 37.8908V81.0118Z" stroke="#4285F4" stroke-width="10.2669" stroke-linecap="round" stroke-linejoin="round"/>
<path d="M56.3555 74.8518L68.6758 87.1721L93.3164 62.5315" stroke="#4285F4" stroke-width="10.2669" stroke-linecap="round" stroke-linejoin="round"/>
</svg>
